<svg xmlns="http://www.w3.org/2000/svg" width="960" height="420" viewBox="0 0 960 420" font-family="ui-monospace, Consolas, monospace">
<text x="20" y="30" font-size="19" font-weight="bold" fill="#1a2233">Detector AUC (0.5 = blind) — 0.25bpp, 12 covers</text>
<line x1="70" y1="330" x2="940" y2="330" stroke="#3a4763" stroke-width="2"/>
<line x1="70" y1="330" x2="940" y2="330" stroke="#d4d9e2"/>
<text x="62" y="334" font-size="11" fill="#6b7690" text-anchor="end">0.00</text>
<line x1="70" y1="265" x2="940" y2="265" stroke="#d4d9e2"/>
<text x="62" y="269" font-size="11" fill="#6b7690" text-anchor="end">0.25</text>
<line x1="70" y1="200" x2="940" y2="200" stroke="#d4d9e2"/>
<text x="62" y="204" font-size="11" fill="#6b7690" text-anchor="end">0.50</text>
<line x1="70" y1="135" x2="940" y2="135" stroke="#d4d9e2"/>
<text x="62" y="139" font-size="11" fill="#6b7690" text-anchor="end">0.75</text>
<line x1="70" y1="70" x2="940" y2="70" stroke="#d4d9e2"/>
<text x="62" y="74" font-size="11" fill="#6b7690" text-anchor="end">1.00</text>
<rect x="85.0" y="70.0" width="34.5" height="260.0" fill="#3f7fbf"/>
<text x="102.2" y="65.0" font-size="10" fill="#1a2233" text-anchor="middle">1.00</text>
<rect x="122.5" y="70.0" width="34.5" height="260.0" fill="#3aa655"/>
<text x="139.8" y="65.0" font-size="10" fill="#1a2233" text-anchor="middle">1.00</text>
<rect x="160.0" y="70.0" width="34.5" height="260.0" fill="#c98a2b"/>
<text x="177.2" y="65.0" font-size="10" fill="#1a2233" text-anchor="middle">1.00</text>
<rect x="197.5" y="70.0" width="34.5" height="260.0" fill="#7c5cd6"/>
<text x="214.8" y="65.0" font-size="10" fill="#1a2233" text-anchor="middle">1.00</text>
<rect x="235.0" y="70.0" width="34.5" height="260.0" fill="#3f7fbf"/>
<text x="252.2" y="65.0" font-size="10" fill="#1a2233" text-anchor="middle">1.00</text>
<text x="178.8" y="352" font-size="12" fill="#1a2233" text-anchor="middle">v3seq</text>
<rect x="302.5" y="70.0" width="34.5" height="260.0" fill="#3f7fbf"/>
<text x="319.8" y="65.0" font-size="10" fill="#1a2233" text-anchor="middle">1.00</text>
<rect x="340.0" y="70.0" width="34.5" height="260.0" fill="#3aa655"/>
<text x="357.2" y="65.0" font-size="10" fill="#1a2233" text-anchor="middle">1.00</text>
<rect x="377.5" y="70.0" width="34.5" height="260.0" fill="#c98a2b"/>
<text x="394.8" y="65.0" font-size="10" fill="#1a2233" text-anchor="middle">1.00</text>
<rect x="415.0" y="70.0" width="34.5" height="260.0" fill="#7c5cd6"/>
<text x="432.2" y="65.0" font-size="10" fill="#1a2233" text-anchor="middle">1.00</text>
<rect x="452.5" y="70.0" width="34.5" height="260.0" fill="#3f7fbf"/>
<text x="469.8" y="65.0" font-size="10" fill="#1a2233" text-anchor="middle">1.00</text>
<text x="396.2" y="352" font-size="12" fill="#1a2233" text-anchor="middle">v3scatter</text>
<rect x="520.0" y="75.5" width="34.5" height="254.5" fill="#3f7fbf"/>
<text x="537.2" y="70.5" font-size="10" fill="#1a2233" text-anchor="middle">0.98</text>
<rect x="557.5" y="195.6" width="34.5" height="134.4" fill="#3aa655"/>
<text x="574.8" y="190.6" font-size="10" fill="#1a2233" text-anchor="middle">0.52</text>
<rect x="595.0" y="113.4" width="34.5" height="216.6" fill="#c98a2b"/>
<text x="612.2" y="108.4" font-size="10" fill="#1a2233" text-anchor="middle">0.83</text>
<rect x="632.5" y="190.9" width="34.5" height="139.1" fill="#7c5cd6"/>
<text x="649.8" y="185.9" font-size="10" fill="#1a2233" text-anchor="middle">0.54</text>
<rect x="670.0" y="130.6" width="34.5" height="199.4" fill="#3f7fbf"/>
<text x="687.2" y="125.6" font-size="10" fill="#1a2233" text-anchor="middle">0.77</text>
<text x="613.8" y="352" font-size="12" fill="#1a2233" text-anchor="middle">v4adapt</text>
<rect x="737.5" y="70.0" width="34.5" height="260.0" fill="#3f7fbf"/>
<text x="754.8" y="65.0" font-size="10" fill="#1a2233" text-anchor="middle">1.00</text>
<rect x="775.0" y="190.9" width="34.5" height="139.1" fill="#3aa655"/>
<text x="792.2" y="185.9" font-size="10" fill="#1a2233" text-anchor="middle">0.54</text>
<rect x="812.5" y="70.0" width="34.5" height="260.0" fill="#c98a2b"/>
<text x="829.8" y="65.0" font-size="10" fill="#1a2233" text-anchor="middle">1.00</text>
<rect x="850.0" y="70.0" width="34.5" height="260.0" fill="#7c5cd6"/>
<text x="867.2" y="65.0" font-size="10" fill="#1a2233" text-anchor="middle">1.00</text>
<rect x="887.5" y="70.0" width="34.5" height="260.0" fill="#3f7fbf"/>
<text x="904.8" y="65.0" font-size="10" fill="#1a2233" text-anchor="middle">1.00</text>
<text x="831.2" y="352" font-size="12" fill="#1a2233" text-anchor="middle">v4nonadapt</text>
<rect x="70" y="372" width="14" height="14" fill="#3f7fbf"/>
<text x="90" y="384" font-size="12" fill="#1a2233">chi2</text>
<rect x="200" y="372" width="14" height="14" fill="#3aa655"/>
<text x="220" y="384" font-size="12" fill="#1a2233">rs</text>
<rect x="330" y="372" width="14" height="14" fill="#c98a2b"/>
<text x="350" y="384" font-size="12" fill="#1a2233">spa</text>
<rect x="460" y="372" width="14" height="14" fill="#7c5cd6"/>
<text x="480" y="384" font-size="12" fill="#1a2233">smooth</text>
<rect x="590" y="372" width="14" height="14" fill="#3f7fbf"/>
<text x="610" y="384" font-size="12" fill="#1a2233">probe</text>
<text x="70" y="408" font-size="11" fill="#6b7690">AUC: clean-vs-stego separation per detector · probe = 5-fold CV logistic</text>
</svg>